Coordinates
version=1
nRows=27
nColumns=38
inDegrees=no

Units are S.I. units (second, meters, Newtons, ...)
If the header above contains a line with 'inDegrees', this indicates whether rotational values are in degrees (yes) or radians (no).

endheader
time	pelvis_tilt	pelvis_list	pelvis_rotation	pelvis_tx	pelvis_ty	pelvis_tz	hip_flexion_r	hip_adduction_r	hip_rotation_r	knee_angle_r	ankle_angle_r	subtalar_angle_r	mtp_angle_r	hip_flexion_l	hip_adduction_l	hip_rotation_l	knee_angle_l	ankle_angle_l	subtalar_angle_l	mtp_angle_l	lumbar_extension	lumbar_bending	lumbar_rotation	arm_flex_r	arm_add_r	arm_rot_r	elbow_flex_r	pro_sup_r	wrist_flex_r	wrist_dev_r	arm_flex_l	arm_add_l	arm_rot_l	elbow_flex_l	pro_sup_l	wrist_flex_l	wrist_dev_l
0	0.496521	1.40591	0.897608	0.693534	-0.434758	0.961716	0.310099	0.0692102	-0.107751	0.401789	0.135837	0	0	0.0841014	-0.0525653	-0.237193	0.0100433	0.0538877	0	0	0.0815529	0.125655	0.0575903	-0.15109	-0.294908	0.300631	0.630912	1.05978	0	0	-0.180052	-0.227425	0.470726	0.646746	1.27526	0	0
0.01	0.489134	1.40694	0.904558	0.693259	-0.434032	0.961496	0.308728	0.0673526	-0.106146	0.400593	0.136629	0	0	0.0831672	-0.0503251	-0.236947	0.00996294	0.0543929	0	0	0.0837878	0.123817	0.0592452	-0.158208	-0.295114	0.299456	0.632765	1.06264	0	0	-0.18304	-0.227016	0.468403	0.648756	1.26382	0	0
0.02	0.488941	1.4084	0.905385	0.692956	-0.433261	0.961392	0.306025	0.0656653	-0.10552	0.399374	0.136851	0	0	0.0812795	-0.048811	-0.236117	0.0101847	0.055445	0	0	0.0849084	0.122686	0.0602411	-0.165088	-0.295312	0.297999	0.635649	1.06603	0	0	-0.184914	-0.22649	0.467209	0.649055	1.25605	0	0
0.03	0.495213	1.40988	0.90078	0.692663	-0.432455	0.961377	0.302338	0.0644503	-0.106032	0.397914	0.137072	0	0	0.0787564	-0.0481617	-0.23455	0.010354	0.0566037	0	0	0.0855388	0.122368	0.0600418	-0.171424	-0.295401	0.296301	0.63899	1.06956	0	0	-0.186085	-0.225119	0.465057	0.647678	1.25042	0	0
0.04	0.509327	1.41152	0.889228	0.692373	-0.431588	0.961468	0.297175	0.0636204	-0.108951	0.395848	0.137826	0	0	0.0750397	-0.0483283	-0.232306	0.00976105	0.0573563	0	0	0.0853175	0.122927	0.0589718	-0.177603	-0.295423	0.293696	0.643444	1.07312	0	0	-0.186558	-0.222748	0.461106	0.64507	1.24562	0	0
0.05	0.53074	1.41332	0.871313	0.692077	-0.430724	0.96168	0.290394	0.0632143	-0.114155	0.392494	0.138034	0	0	0.0703476	-0.0492564	-0.229374	0.00873487	0.0577046	0	0	0.0840876	0.124236	0.0569708	-0.183212	-0.295254	0.290583	0.648561	1.07706	0	0	-0.186273	-0.219593	0.455551	0.641622	1.24183	0	0
0.06	0.554412	1.41479	0.851676	0.69179	-0.429897	0.961946	0.283149	0.0632706	-0.119967	0.388065	0.13794	0	0	0.0659905	-0.0506263	-0.226599	0.00810732	0.0580874	0	0	0.082879	0.125929	0.054506	-0.188439	-0.294743	0.286853	0.654041	1.07993	0	0	-0.185469	-0.21624	0.450917	0.637969	1.24148	0	0
0.07	0.578593	1.41597	0.831685	0.691532	-0.429143	0.962229	0.27611	0.063635	-0.125824	0.383431	0.137624	0	0	0.0618209	-0.0521538	-0.223641	0.00729019	0.0582185	0	0	0.0816883	0.127743	0.0519982	-0.193401	-0.294058	0.282774	0.660018	1.0818	0	0	-0.183891	-0.212886	0.44846	0.634239	1.24189	0	0
0.08	0.604634	1.41602	0.809871	0.691331	-0.428392	0.962497	0.268994	0.065609	-0.130228	0.376938	0.135513	0	0	0.0585922	-0.0548334	-0.221526	0.00708733	0.0589452	0	0	0.081324	0.130623	0.0496129	-0.198809	-0.293501	0.27828	0.667608	1.08207	0	0	-0.181464	-0.209075	0.447982	0.629268	1.23897	0	0
0.09	0.632431	1.40484	0.777653	0.691086	-0.42893	0.963111	0.269354	0.0763715	-0.142372	0.36317	0.123678	0	0	0.0651865	-0.0668176	-0.225207	0.00967653	0.0589833	0	0	0.0859366	0.145308	0.0558798	-0.201512	-0.296557	0.275369	0.672149	1.08131	0	0	-0.174627	-0.199371	0.44741	0.617043	1.23324	0	0
0.1	0.654318	1.40546	0.760097	0.690907	-0.428242	0.963364	0.262537	0.07776	-0.146915	0.357696	0.122399	0	0	0.0617593	-0.0686131	-0.222398	0.00938056	0.0590367	0	0	0.08506	0.147118	0.0531902	-0.204976	-0.295761	0.274026	0.678283	1.07751	0	0	-0.171695	-0.195678	0.442855	0.613445	1.21611	0	0
0.11	0.671304	1.40584	0.747147	0.690802	-0.427648	0.963585	0.256866	0.079003	-0.15056	0.352707	0.121216	0	0	0.059322	-0.0700758	-0.219808	0.00931442	0.0586592	0	0	0.0846874	0.148301	0.0507669	-0.207465	-0.294632	0.273928	0.682927	1.07189	0	0	-0.168697	-0.192509	0.440693	0.610684	1.20135	0	0
0.12	0.685199	1.40605	0.737194	0.69074	-0.427134	0.963762	0.252078	0.0801543	-0.153753	0.348271	0.120179	0	0	0.057729	-0.0714192	-0.217634	0.0098395	0.0588592	0	0	0.0845688	0.149207	0.0482834	-0.208895	-0.293484	0.275751	0.686247	1.06491	0	0	-0.165567	-0.189786	0.440167	0.608792	1.18705	0	0
0.13	0.69931	1.40662	0.72669	0.690728	-0.426619	0.963924	0.247027	0.0813583	-0.156107	0.343908	0.119372	0	0	0.0556086	-0.0724969	-0.215341	0.0100012	0.0591449	0	0	0.083923	0.149827	0.0461072	-0.209555	-0.292356	0.278588	0.688958	1.05628	0	0	-0.162515	-0.187354	0.438952	0.608011	1.17258	0	0
0.14	0.712046	1.40714	0.717265	0.690735	-0.426106	0.964063	0.242197	0.0825292	-0.158056	0.339519	0.118395	0	0	0.0537084	-0.0734852	-0.213682	0.010296	0.0595859	0	0	0.0836938	0.150509	0.0451567	-0.210495	-0.291063	0.280613	0.690985	1.04932	0	0	-0.158749	-0.185312	0.440295	0.606678	1.16447	0	0
0.15	0.718327	1.40731	0.713641	0.690817	-0.425639	0.9641	0.238999	0.0832901	-0.159485	0.33621	0.117889	0	0	0.0529388	-0.0740564	-0.212758	0.010782	0.0601335	0	0	0.0843157	0.150764	0.0448337	-0.210867	-0.289473	0.282398	0.69183	1.04632	0	0	-0.155088	-0.183603	0.44183	0.605848	1.16204	0	0
0.16	0.720582	1.40732	0.713717	0.690946	-0.425242	0.964077	0.236844	0.0837904	-0.160454	0.333589	0.117673	0	0	0.0528574	-0.0743282	-0.211925	0.0112681	0.0606296	0	0	0.0853445	0.150677	0.0445838	-0.210492	-0.287684	0.284335	0.691834	1.04399	0	0	-0.151572	-0.182278	0.44361	0.605758	1.16136	0	0
0.17	0.721741	1.40757	0.715011	0.691065	-0.424885	0.964034	0.23496	0.0839584	-0.161218	0.331418	0.117639	0	0	0.0528059	-0.0742753	-0.21053	0.0116852	0.0610766	0	0	0.0862231	0.150239	0.0441581	-0.209332	-0.285815	0.286676	0.691047	1.04076	0	0	-0.14815	-0.181423	0.445772	0.606372	1.16171	0	0
0.18	0.720581	1.40796	0.718306	0.691209	-0.424565	0.963962	0.233987	0.0836067	-0.161963	0.330469	0.118016	0	0	0.0530183	-0.073858	-0.209413	0.012235	0.0616094	0	0	0.0870208	0.149461	0.0442271	-0.208229	-0.283919	0.288076	0.690654	1.03866	0	0	-0.144937	-0.180968	0.447148	0.607762	1.16293	0	0
0.19	0.717007	1.40843	0.723488	0.691377	-0.42428	0.963868	0.233665	0.0829699	-0.162187	0.330208	0.118489	0	0	0.0533942	-0.0731363	-0.208806	0.0127405	0.0620899	0	0	0.0879064	0.148453	0.0446652	-0.207009	-0.282055	0.288944	0.69066	1.03784	0	0	-0.14218	-0.180769	0.447551	0.610047	1.16587	0	0
0.2	0.713338	1.40895	0.728712	0.691537	-0.424051	0.963773	0.233533	0.0822755	-0.162416	0.330368	0.119072	0	0	0.0535424	-0.0723464	-0.207642	0.0128029	0.0620693	0	0	0.0886078	0.147401	0.0450545	-0.205595	-0.280226	0.289233	0.690942	1.03744	0	0	-0.139351	-0.180591	0.447558	0.612729	1.17255	0	0
0.21	0.713419	1.40981	0.73099	0.691651	-0.423918	0.96374	0.232729	0.0815647	-0.163459	0.330478	0.119636	0	0	0.0533382	-0.0717152	-0.205562	0.0131269	0.0620941	0	0	0.0882478	0.146412	0.0447298	-0.203698	-0.278546	0.289471	0.691771	1.03684	0	0	-0.136068	-0.18044	0.447118	0.615541	1.18038	0	0
0.22	0.712332	1.41051	0.733843	0.69181	-0.423759	0.963726	0.232037	0.0809476	-0.164135	0.330321	0.120173	0	0	0.0531845	-0.0711016	-0.204213	0.0133035	0.0620299	0	0	0.0882585	0.145633	0.0447361	-0.201896	-0.277177	0.289766	0.692914	1.03523	0	0	-0.133331	-0.180267	0.446244	0.618591	1.18759	0	0
0.23	0.711522	1.41096	0.73584	0.691985	-0.423546	0.963721	0.231334	0.0806089	-0.164704	0.329922	0.120504	0	0	0.0528243	-0.0707145	-0.203557	0.0130721	0.0620597	0	0	0.0884751	0.145306	0.0453962	-0.200377	-0.276148	0.289871	0.694407	1.03299	0	0	-0.130811	-0.180127	0.446208	0.621712	1.19373	0	0
0.24	0.711638	1.41115	0.736719	0.692155	-0.423359	0.963718	0.230723	0.0805453	-0.165513	0.329513	0.120698	0	0	0.0524611	-0.0706657	-0.202856	0.0127178	0.0619618	0	0	0.08859	0.145377	0.0463309	-0.198895	-0.27543	0.289917	0.69611	1.02975	0	0	-0.12806	-0.180059	0.447151	0.624728	1.19866	0	0
0.25	0.711248	1.41102	0.73814	0.692347	-0.423204	0.963706	0.230507	0.0806917	-0.166527	0.329217	0.120765	0	0	0.0527091	-0.0709251	-0.202296	0.0129584	0.0620337	0	0	0.088994	0.145628	0.047033	-0.19736	-0.274888	0.290165	0.697679	1.02698	0	0	-0.125422	-0.180113	0.448484	0.62755	1.20048	0	0
0.26	0.710474	1.41087	0.73997	0.692531	-0.423067	0.963707	0.23042	0.0807845	-0.167594	0.329019	0.120744	0	0	0.0531552	-0.0711972	-0.202041	0.0134388	0.062128	0	0	0.0893619	0.145868	0.0475188	-0.195696	-0.274574	0.2905	0.6993	1.024	0	0	-0.122837	-0.180069	0.449401	0.629976	1.20035	0	0
